mtllib pis_materials.mtl
o armor_straz_podstawowa
v -0.400 -0.220 0.830
v -0.400 -0.220 1.270
v -0.400 0.220 0.830
v -0.400 0.220 1.270
v 0.400 -0.220 0.830
v 0.400 -0.220 1.270
v 0.400 0.220 0.830
v 0.400 0.220 1.270
v -0.240 -0.220 1.330
v -0.240 -0.220 1.770
v -0.240 0.220 1.330
v -0.240 0.220 1.770
v 0.240 -0.220 1.330
v 0.240 -0.220 1.770
v 0.240 0.220 1.330
v 0.240 0.220 1.770
v -0.640 -0.120 0.620
v -0.640 -0.120 1.580
v -0.640 0.120 0.620
v -0.640 0.120 1.580
v -0.400 -0.120 0.620
v -0.400 -0.120 1.580
v -0.400 0.120 0.620
v -0.400 0.120 1.580
v 0.400 -0.120 0.620
v 0.400 -0.120 1.580
v 0.400 0.120 0.620
v 0.400 0.120 1.580
v 0.640 -0.120 0.620
v 0.640 -0.120 1.580
v 0.640 0.120 0.620
v 0.640 0.120 1.580
v -0.360 -0.160 -0.060
v -0.360 -0.160 0.700
v -0.360 0.160 -0.060
v -0.360 0.160 0.700
v -0.040 -0.160 -0.060
v -0.040 -0.160 0.700
v -0.040 0.160 -0.060
v -0.040 0.160 0.700
v 0.040 -0.160 -0.060
v 0.040 -0.160 0.700
v 0.040 0.160 -0.060
v 0.040 0.160 0.700
v 0.360 -0.160 -0.060
v 0.360 -0.160 0.700
v 0.360 0.160 -0.060
v 0.360 0.160 0.700
usemtl Cloth
f 1 2 4 3
f 5 7 8 6
f 1 5 6 2
f 3 4 8 7
f 1 3 7 5
f 2 6 8 4
usemtl Flesh
f 9 10 12 11
f 13 15 16 14
f 9 13 14 10
f 11 12 16 15
f 9 11 15 13
f 10 14 16 12
usemtl Cloth
f 17 18 20 19
f 21 23 24 22
f 17 21 22 18
f 19 20 24 23
f 17 19 23 21
f 18 22 24 20
f 25 26 28 27
f 29 31 32 30
f 25 29 30 26
f 27 28 32 31
f 25 27 31 29
f 26 30 32 28
f 33 34 36 35
f 37 39 40 38
f 33 37 38 34
f 35 36 40 39
f 33 35 39 37
f 34 38 40 36
f 41 42 44 43
f 45 47 48 46
f 41 45 46 42
f 43 44 48 47
f 41 43 47 45
f 42 46 48 44
