mtllib pis_materials.mtl
o chest
v -0.650 -0.400 0.000
v -0.650 -0.400 0.800
v -0.650 0.400 0.000
v -0.650 0.400 0.800
v 0.650 -0.400 0.000
v 0.650 -0.400 0.800
v 0.650 0.400 0.000
v 0.650 0.400 0.800
v -0.650 0.020 0.730
v -0.650 0.020 0.970
v -0.650 0.340 0.730
v -0.650 0.340 0.970
v 0.650 0.020 0.730
v 0.650 0.020 0.970
v 0.650 0.340 0.730
v 0.650 0.340 0.970
usemtl Wood
f 1 2 4 3
f 5 7 8 6
f 1 5 6 2
f 3 4 8 7
f 1 3 7 5
f 2 6 8 4
usemtl Rust
f 9 10 12 11
f 13 15 16 14
f 9 13 14 10
f 11 12 16 15
f 9 11 15 13
f 10 14 16 12
