mtllib pis_materials.mtl
o sword_20
v -0.070 -0.070 0.380
v -0.070 -0.070 0.520
v -0.070 0.070 0.380
v -0.070 0.070 0.520
v 0.070 -0.070 0.380
v 0.070 -0.070 0.520
v 0.070 0.070 0.380
v 0.070 0.070 0.520
v -0.280 -0.100 -0.250
v -0.280 -0.100 -0.050
v -0.280 0.100 -0.250
v -0.280 0.100 -0.050
v 0.280 -0.100 -0.250
v 0.280 -0.100 -0.050
v 0.280 0.100 -0.250
v 0.280 0.100 -0.050
v -0.100 -0.100 -0.460
v -0.100 -0.100 -0.260
v -0.100 0.100 -0.460
v -0.100 0.100 -0.260
v 0.100 -0.100 -0.460
v 0.100 -0.100 -0.260
v 0.100 0.100 -0.460
v 0.100 0.100 -0.260
v 0.000 0.000 1.120
v -0.105 -0.105 0.920
v 0.105 -0.105 0.920
v -0.105 0.105 0.920
v 0.105 0.105 0.920
usemtl Iron
f 1 2 4 3
f 5 7 8 6
f 1 5 6 2
f 3 4 8 7
f 1 3 7 5
f 2 6 8 4
usemtl Wood
f 9 10 12 11
f 13 15 16 14
f 9 13 14 10
f 11 12 16 15
f 9 11 15 13
f 10 14 16 12
usemtl Rust
f 17 18 20 19
f 21 23 24 22
f 17 21 22 18
f 19 20 24 23
f 17 19 23 21
f 18 22 24 20
usemtl Iron
f 25 26 27
f 25 27 29
f 25 29 28
f 25 28 26
f 26 28 29 27
