mtllib pis_materials.mtl
o topielec
v -0.580 -0.320 0.350
v -0.580 -0.320 0.950
v -0.580 0.320 0.350
v -0.580 0.320 0.950
v 0.580 -0.320 0.350
v 0.580 -0.320 0.950
v 0.580 0.320 0.350
v 0.580 0.320 0.950
v -0.270 -0.250 0.910
v -0.270 -0.250 1.450
v -0.270 0.250 0.910
v -0.270 0.250 1.450
v 0.270 -0.250 0.910
v 0.270 -0.250 1.450
v 0.270 0.250 0.910
v 0.270 0.250 1.450
v -0.720 -0.120 -0.040
v -0.720 -0.120 0.800
v -0.720 0.120 -0.040
v -0.720 0.120 0.800
v -0.480 -0.120 -0.040
v -0.480 -0.120 0.800
v -0.480 0.120 -0.040
v -0.480 0.120 0.800
v 0.480 -0.120 -0.040
v 0.480 -0.120 0.800
v 0.480 0.120 -0.040
v 0.480 0.120 0.800
v 0.720 -0.120 -0.040
v 0.720 -0.120 0.800
v 0.720 0.120 -0.040
v 0.720 0.120 0.800
usemtl Flesh
f 1 2 4 3
f 5 7 8 6
f 1 5 6 2
f 3 4 8 7
f 1 3 7 5
f 2 6 8 4
f 9 10 12 11
f 13 15 16 14
f 9 13 14 10
f 11 12 16 15
f 9 11 15 13
f 10 14 16 12
usemtl Bone
f 17 18 20 19
f 21 23 24 22
f 17 21 22 18
f 19 20 24 23
f 17 19 23 21
f 18 22 24 20
f 25 26 28 27
f 29 31 32 30
f 25 29 30 26
f 27 28 32 31
f 25 27 31 29
f 26 30 32 28
